<?xml version="1.0" standalone="no"?>
<!DOCTYPE svg PUBLIC "-//W3C//DTD SVG 20010904//EN"
 "http://www.w3.org/TR/2001/REC-SVG-20010904/DTD/svg10.dtd">
<svg version="1.0" xmlns="http://www.w3.org/2000/svg"
 width="256.000000pt" height="256.000000pt" viewBox="0 0 256.000000 256.000000"
 preserveAspectRatio="xMidYMid meet">

<g transform="translate(0.000000,256.000000) scale(0.100000,-0.100000)"
fill="#000000" stroke="none">
<path d="M1167 2530 c-66 -11 -75 -24 -12 -17 28 3 59 2 70 -3 l20 -8 -20 -8
c-11 -5 -65 -9 -120 -9 -82 1 -109 5 -150 23 -27 13 -44 17 -37 11 21 -22 14
-25 -47 -21 -98 7 -236 -44 -298 -111 l-28 -31 33 27 c38 31 102 38 102 12 0
-20 -36 -55 -58 -56 -10 0 -6 -4 11 -11 34 -12 31 -26 -14 -56 -29 -20 -43
-23 -99 -19 -36 2 -74 8 -85 12 -17 8 -18 7 -7 -7 11 -14 8 -18 -25 -29 -42
-13 -86 -39 -79 -46 2 -3 18 3 35 12 29 15 31 14 31 -3 0 -10 -6 -24 -13 -31
-12 -14 -7 -13 61 5 21 6 23 4 20 -17 -2 -20 -11 -25 -48 -32 -120 -21 -151
-30 -181 -50 -36 -24 -73 -80 -66 -99 2 -7 12 3 22 22 30 58 63 71 39 15 -16
-39 -18 -113 -4 -135 7 -11 10 -2 10 33 0 59 12 82 51 102 55 29 68 -14 19
-63 -16 -17 -30 -38 -30 -47 0 -15 2 -14 17 3 28 31 59 37 66 12 10 -38 -25
-60 -96 -61 -63 -1 -65 -2 -14 -13 40 -9 23 -26 -26 -27 -34 0 -38 -2 -21 -9
20 -8 17 -13 -42 -73 -58 -60 -104 -121 -104 -140 0 -4 27 23 59 61 68 79 131
132 157 132 15 0 14 -4 -9 -28 -15 -15 -27 -35 -27 -43 0 -7 -11 -30 -23 -51
-18 -29 -26 -34 -40 -27 -18 11 -25 -5 -7 -16 12 -8 13 -52 1 -59 -5 -3 -20 4
-35 15 -32 25 -35 11 -3 -19 22 -20 95 -57 109 -54 3 1 11 -5 17 -12 15 -18
-18 -47 -104 -91 -61 -31 -67 -42 -10 -19 14 6 9 -5 -18 -36 -38 -44 -53 -78
-45 -101 2 -7 14 3 26 23 23 37 110 123 118 116 2 -3 -5 -23 -16 -46 -11 -22
-20 -50 -20 -61 0 -14 -9 -22 -28 -27 -50 -11 -47 -14 11 -11 57 2 57 2 33
-15 -13 -10 -31 -29 -40 -43 -15 -23 -15 -24 1 -18 14 5 13 1 -6 -25 -12 -17
-32 -38 -44 -47 -12 -8 -18 -15 -14 -15 10 0 -18 -53 -36 -69 -13 -10 -11 -16
11 -41 15 -17 34 -30 44 -30 9 0 60 23 112 50 104 55 111 57 102 35 -4 -13 -2
-14 14 -5 16 9 20 8 20 -5 0 -8 -5 -24 -12 -34 -9 -15 -8 -24 3 -43 9 -12 21
-45 29 -73 7 -27 17 -55 21 -60 4 -6 1 -31 -7 -55 -38 -109 32 -201 141 -186
33 4 46 1 56 -11 11 -13 28 -15 97 -10 289 21 493 -101 495 -294 1 -86 -9 -93
-141 -100 -59 -3 66 -5 278 -5 212 0 324 2 250 5 -138 6 -171 15 -177 47 -11
63 -4 115 23 164 76 140 247 209 450 180 76 -10 80 -10 97 12 16 19 29 23 75
23 122 0 175 102 115 218 -10 21 -13 43 -8 73 4 29 2 44 -4 44 -6 0 -11 12
-11 26 l0 26 31 -27 c34 -28 52 -26 27 2 -19 22 -48 78 -48 93 0 7 8 9 20 5
15 -5 20 -2 20 10 0 10 6 15 13 12 142 -56 147 -59 147 -83 0 -23 3 -24 63
-24 51 0 67 4 82 20 18 20 18 22 -3 74 -17 40 -41 141 -42 174 0 1 -20 11 -45
22 -56 24 -58 34 -5 25 26 -4 40 -3 40 4 0 6 -10 10 -22 10 -13 -1 -50 4 -83
10 -33 6 -63 11 -67 11 -5 0 -8 6 -8 14 0 9 16 16 45 20 25 3 65 9 90 12 38 5
43 9 35 23 -5 9 -6 36 -3 59 4 33 2 43 -11 48 -9 3 -16 14 -16 24 0 11 -5 22
-11 26 -8 4 -10 -14 -7 -62 3 -66 2 -68 -24 -75 -31 -8 -28 -16 -48 136 -15
114 -20 135 -32 135 -6 0 -8 -16 -5 -42 16 -112 19 -178 9 -178 -5 0 -25 20
-43 45 -19 25 -47 62 -62 82 -19 26 -26 44 -22 60 4 17 2 21 -10 17 -10 -4
-15 0 -15 10 0 9 6 16 14 16 7 0 19 7 26 15 7 8 29 15 49 15 l36 1 -27 22
c-47 39 -113 86 -131 93 -9 3 -17 10 -17 15 0 5 10 5 23 0 12 -4 36 -11 52
-15 l30 -7 -25 21 -25 20 22 6 c12 3 19 12 17 18 -3 9 -20 11 -54 8 -33 -3
-50 -1 -50 7 0 6 15 11 34 11 35 0 62 19 29 21 -10 0 -13 3 -5 6 30 12 9 24
-31 18 -46 -7 -58 0 -72 44 -5 15 -3 26 5 31 16 10 68 -5 92 -27 18 -16 18
-16 10 8 -5 13 -31 38 -58 56 -79 50 -106 75 -119 107 -22 51 3 60 70 26 22
-11 42 -20 45 -20 11 1 -47 41 -107 75 -67 38 -95 71 -70 81 17 6 84 -20 109
-43 10 -9 18 -11 18 -5 0 14 -65 68 -106 87 -18 8 -48 15 -68 15 -35 0 -47 12
-26 25 6 3 10 10 10 16 0 16 -26 10 -54 -12 -32 -25 -59 -18 -54 13 2 14 12
25 28 29 l25 6 -29 12 c-34 13 -56 8 -81 -19 -23 -25 -35 -25 -35 -1 0 28 -57
81 -86 81 -24 0 -24 -1 -10 -22 37 -53 2 -51 -60 3 -32 28 -49 37 -54 29 -6
-9 -20 -10 -59 -1 -58 12 -113 13 -184 1z m287 -95 c11 -8 15 -15 10 -15 -6 0
-19 7 -30 15 -10 8 -14 14 -9 14 6 0 19 -6 29 -14z m-30 -31 c9 -3 14 -10 11
-14 -3 -4 6 -11 20 -14 37 -9 31 -26 -9 -26 -19 0 -41 -3 -49 -6 -13 -5 -14 0
-5 30 6 20 12 36 14 36 1 0 9 -3 18 -6z m227 -47 c-10 -9 -11 -8 -5 6 3 10 9
15 12 12 3 -3 0 -11 -7 -18z m30 -47 c13 0 11 -64 -3 -78 -15 -15 -25 -15 -25
1 0 6 -4 30 -8 51 -7 35 -6 38 9 33 10 -4 22 -7 27 -7z m-271 -29 c0 -5 -7
-14 -15 -21 -19 -16 -19 -30 0 -30 20 0 65 -21 65 -31 0 -4 -12 -9 -27 -11
-26 -3 -26 -3 26 -60 53 -58 57 -67 20 -48 -37 20 -20 -9 21 -35 47 -30 70
-33 47 -7 -20 22 -22 42 -4 42 33 0 88 -23 98 -41 24 -45 -29 -62 -106 -34
-22 8 -57 14 -77 15 -53 0 -89 19 -79 39 5 9 9 21 10 26 0 6 12 11 27 13 26 4
26 4 -26 57 l-53 54 13 41 c10 31 18 40 37 40 12 0 23 -4 23 -9z m-790 -147
c0 -8 -32 -33 -42 -34 -13 0 -9 28 5 33 18 8 37 8 37 1z m50 -47 c0 -7 -5 -18
-11 -24 -6 -6 -19 -37 -30 -69 l-20 -59 6 54 c6 56 28 111 45 111 6 0 10 -6
10 -13z m190 -60 c0 -2 -10 -12 -22 -23 l-23 -19 19 23 c18 21 26 27 26 19z
m-460 -42 c0 -18 -7 -26 -25 -31 -41 -10 -48 0 -21 29 31 34 46 34 46 2z m650
-3 c14 -9 48 -40 76 -68 l50 -51 -18 -29 c-27 -43 -23 -96 9 -134 22 -26 32
-31 60 -28 22 3 33 0 33 -9 0 -8 14 -13 40 -13 31 0 38 3 34 15 -5 11 1 15 25
15 52 0 86 76 56 127 -9 15 -14 20 -11 11 8 -28 -14 -32 -40 -7 -21 19 -22 24
-9 32 8 4 20 5 27 1 6 -4 9 -3 5 2 -3 5 24 27 60 48 57 35 76 41 145 46 l79 5
11 -38 c7 -22 22 -46 35 -54 25 -17 30 -52 11 -71 -7 -7 -9 -12 -5 -12 5 0 19
12 32 26 l25 27 0 -29 c0 -89 -56 -168 -145 -205 -30 -13 -55 -25 -55 -28 0
-3 21 -17 46 -31 26 -13 73 -51 105 -83 52 -52 59 -63 59 -98 0 -42 -14 -50
-36 -21 -12 16 -13 15 -14 -5 0 -12 -5 -25 -11 -29 -8 -5 -6 -10 5 -16 24 -13
21 -31 -3 -18 -11 5 -28 10 -39 10 -11 0 -23 8 -27 18 -7 15 -9 13 -15 -8 -4
-14 -3 -29 2 -35 15 -17 8 -26 -11 -15 -11 5 -27 10 -37 10 -9 0 -23 8 -30 18
-12 16 -14 15 -15 -8 -1 -14 -1 -33 -1 -43 2 -14 -2 -16 -17 -7 -11 5 -27 10
-37 10 -9 0 -23 8 -30 18 -12 16 -14 15 -15 -8 -1 -14 -1 -33 -1 -43 2 -14 -2
-16 -17 -7 -11 5 -29 10 -40 10 -11 0 -22 9 -26 21 -10 31 -23 6 -19 -37 2
-30 0 -33 -16 -24 -10 6 -28 10 -39 10 -11 0 -22 9 -26 21 -10 30 -19 14 -17
-27 2 -32 1 -34 -17 -25 -11 6 -28 11 -39 11 -11 0 -23 7 -26 16 -10 26 -23 6
-20 -31 2 -31 0 -34 -16 -25 -10 6 -28 10 -39 10 -11 0 -22 9 -26 21 -10 30
-19 14 -17 -27 2 -32 1 -34 -17 -25 -11 6 -29 11 -40 11 -11 0 -22 9 -26 21
-10 30 -19 14 -17 -27 2 -32 1 -34 -17 -25 -11 6 -29 11 -40 11 -11 0 -22 9
-26 21 -10 30 -19 14 -17 -27 2 -32 1 -34 -17 -25 -11 6 -29 11 -40 11 -11 0
-22 9 -26 21 -10 30 -19 14 -17 -27 2 -32 1 -34 -17 -25 -11 6 -27 11 -37 11
-9 0 -23 8 -30 18 -12 15 -13 14 -14 -14 0 -31 0 -31 -35 -20 -31 10 -35 15
-35 43 0 18 5 33 10 33 6 0 10 -4 10 -10 0 -5 4 -10 8 -10 5 0 14 22 21 50 32
123 140 296 229 367 26 20 51 40 55 43 4 4 -6 22 -23 40 -66 70 -88 145 -79
264 6 82 34 158 61 169 7 3 42 6 78 6 46 1 72 -4 90 -17z m-300 -26 c11 -29
-6 -103 -30 -131 -10 -11 -21 -31 -25 -45 -7 -24 -114 -209 -162 -280 -51 -77
-12 35 94 265 38 83 75 165 82 183 16 38 28 41 41 8z m-280 -6 c0 -5 -7 -10
-16 -10 -8 0 -12 5 -9 10 3 6 10 10 16 10 5 0 9 -4 9 -10z m-25 -39 c0 -8 -20
-20 -44 -27 l-43 -13 28 30 c29 30 59 35 59 10z m835 -57 c0 -8 -4 -12 -10 -9
-5 3 -10 10 -10 16 0 5 5 9 10 9 6 0 10 -7 10 -16z m-20 -14 c11 -21 6 -40
-11 -40 -11 0 -48 40 -49 53 0 17 50 6 60 -13z m52 -2 c-7 -7 -12 -8 -12 -2 0
6 3 14 7 17 3 4 9 5 12 2 2 -3 -1 -11 -7 -17z m-987 -28 c-3 -5 -13 -10 -21
-10 -8 0 -12 5 -9 10 3 6 13 10 21 10 8 0 12 -4 9 -10z m1705 -44 c0 -18 -1
-19 -20 -1 -11 10 -20 24 -20 32 0 11 4 11 20 1 11 -7 20 -21 20 -32z m-1667
-13 c-13 -8 -23 -22 -23 -29 0 -7 -14 -21 -31 -30 -37 -18 -35 -9 6 40 17 20
39 36 50 35 19 0 19 -1 -2 -16z m851 -52 c21 -10 21 -10 -1 -10 -23 -1 -53 33
-53 59 0 9 7 4 17 -12 9 -15 26 -31 37 -37z m140 7 c18 -15 18 -18 4 -18 -19
0 -48 36 -48 60 1 11 4 9 12 -5 6 -11 20 -28 32 -37z m746 16 c0 -19 -16 -10
-31 17 -10 19 -9 20 10 9 12 -6 21 -18 21 -26z m-1834 -29 c-21 -32 -20 -38 7
-29 21 6 20 5 -5 -23 -16 -16 -28 -34 -28 -41 0 -16 -15 -15 -30 2 -11 15 1
39 49 99 21 25 26 21 7 -8z m484 -136 c-11 -74 -20 -150 -20 -169 -1 -63 -50
-94 -78 -50 -10 17 -7 35 22 118 18 53 41 111 49 127 9 17 21 50 27 73 20 77
20 39 0 -99z m-430 32 c-6 -12 -18 -21 -27 -21 -13 0 -12 5 7 25 27 29 37 27
20 -4z m-104 -25 c14 -11 16 -18 8 -26 -15 -15 -44 -2 -44 21 0 23 9 24 36 5z
m45 -39 c-13 -13 -26 -3 -16 12 3 6 11 8 17 5 6 -4 6 -10 -1 -17z m1879 -32
c14 -16 10 -18 -14 -9 -9 3 -16 10 -16 15 0 14 16 11 30 -6z m0 -100 c7 -8 8
-15 2 -15 -5 0 -15 7 -22 15 -7 8 -8 15 -2 15 5 0 15 -7 22 -15z m-1884 -71
c-3 -9 -6 -20 -6 -25 0 -4 -13 -15 -30 -24 -16 -9 -30 -13 -30 -10 0 14 31 64
42 68 24 10 30 7 24 -9z m2020 -89 c4 -8 12 -15 19 -15 12 0 29 -40 20 -48 -2
-2 -16 2 -32 10 -19 9 -29 22 -31 41 -4 28 15 38 24 12z m-477 -120 c9 4 21 8
26 9 6 1 15 5 22 9 8 5 19 -6 32 -32 l21 -40 -33 -25 c-35 -28 -21 -35 29 -16
23 9 31 8 46 -8 15 -15 20 -40 25 -125 l6 -106 -49 -21 c-69 -30 -73 -35 -64
-76 8 -33 6 -35 -25 -48 -74 -31 -297 -76 -294 -60 1 5 1 21 0 37 -1 23 -5 27
-31 27 l-30 0 0 -65 0 -65 -95 0 -95 0 0 -49 c0 -34 -4 -51 -15 -55 -12 -4
-15 5 -15 49 0 48 -3 55 -20 55 -10 0 -23 -8 -28 -17 -9 -15 -16 -15 -63 -4
-30 6 -70 21 -89 32 l-35 20 38 -6 37 -6 0 61 c0 53 -2 60 -19 60 -11 0 -22 4
-25 9 -3 4 -29 11 -58 15 -29 4 -71 9 -93 12 -51 8 -195 58 -260 92 l-50 25
42 19 42 18 -20 57 c-12 35 -16 60 -10 66 9 9 22 -26 37 -101 8 -42 15 -45 57
-27 l36 15 -20 57 c-12 35 -16 60 -10 66 9 9 41 -77 41 -109 0 -22 16 -24 53
-9 l36 15 -20 57 c-11 34 -16 60 -10 66 8 8 41 -82 41 -111 0 -20 18 -22 53
-7 l36 15 -20 57 c-12 35 -16 60 -10 66 9 9 15 -8 37 -96 8 -37 16 -39 57 -22
l36 15 -20 57 c-12 35 -16 60 -10 66 9 9 15 -8 37 -96 8 -37 16 -39 57 -22
l36 15 -20 57 c-13 38 -16 60 -9 67 5 5 10 8 11 6 0 -3 8 -32 18 -65 18 -63
22 -66 77 -45 l23 9 -20 57 c-12 36 -16 61 -10 67 6 6 16 -12 26 -49 9 -33 18
-65 20 -71 3 -10 11 -10 32 -3 15 6 33 13 40 15 9 3 7 19 -7 61 -19 53 -19 81
-1 69 5 -2 14 -32 21 -65 7 -33 16 -60 20 -60 4 0 24 7 43 15 l36 15 -19 56
c-18 53 -19 81 -1 70 4 -3 13 -30 20 -60 7 -31 16 -58 21 -61 4 -3 24 2 43 10
l36 15 -19 56 c-18 53 -19 81 -1 70 4 -3 14 -30 21 -61 7 -31 17 -58 21 -60 4
-3 23 2 42 10 l36 15 -20 57 c-11 34 -16 60 -10 66 5 5 14 -13 21 -46 18 -78
20 -80 63 -62 l36 15 -19 56 c-11 31 -17 61 -13 68 4 6 16 -17 26 -52 15 -51
22 -62 36 -57z m-1278 9 c4 -27 16 -71 27 -97 12 -26 17 -47 11 -47 -17 0 -47
61 -58 121 -14 69 -33 77 -50 19 -6 -22 -16 -40 -21 -40 -11 0 -14 83 -3 94 4
4 25 6 48 4 l40 -3 6 -51z m-320 18 c-12 -22 -51 -58 -51 -47 0 9 50 65 57 65
2 0 -1 -8 -6 -18z m-36 -107 c-37 -36 -70 -63 -72 -61 -6 6 119 125 131 126 5
0 -21 -29 -59 -65z m1913 23 c-2 -13 -7 -23 -13 -23 -5 0 -11 10 -13 23 -2 15
2 22 13 22 11 0 15 -7 13 -22z m-1624 -74 c3 -8 2 -12 -4 -9 -6 3 -10 10 -10
16 0 14 7 11 14 -7z m20 -98 c18 -70 9 -96 -32 -95 l-27 1 32 14 32 14 -19 56
c-11 31 -17 61 -14 66 9 13 10 10 28 -56z m108 -35 c6 -41 -8 -61 -40 -60
l-27 1 32 14 c29 13 32 16 23 40 -12 31 -12 34 -1 34 5 0 11 -13 13 -29z m-2
-147 c52 -36 94 -71 92 -77 -5 -18 -43 -67 -52 -67 -4 0 -27 29 -50 64 -50 77
-76 104 -60 62 5 -15 15 -36 20 -47 9 -17 7 -19 -16 -19 -38 0 -64 27 -64 66
0 37 15 84 27 84 5 0 51 -30 103 -66z m1524 40 c11 -29 6 -77 -11 -96 -16 -18
-68 -26 -61 -10 23 58 54 122 59 122 4 0 10 -7 13 -16z m-54 -31 c-19 -37
-111 -143 -123 -143 -4 0 -13 13 -22 30 -19 37 -7 61 44 84 20 8 52 27 71 40
48 34 54 32 30 -11z m-834 -273 c8 0 14 -4 14 -10 0 -15 -24 -12 -46 6 -17 14
-17 15 -1 10 10 -3 25 -6 33 -6z"/>
<path d="M1037 1494 c-6 -6 85 -84 92 -78 2 1 -12 21 -30 43 -33 39 -49 48
-62 35z"/>
<path d="M1160 585 l0 -55 130 0 c123 0 130 1 130 20 0 17 -7 20 -40 20 -33 0
-40 3 -40 20 0 17 7 20 40 20 29 0 40 4 40 15 0 13 -21 15 -130 15 l-130 0 0
-55z"/>
</g>
</svg>
