<svg version="1.1" xmlns="http://www.w3.org/2000/svg" viewBox="0 0 357.5601806640625 732.2199249267578" width="1072.6805419921875" height="2196.6597747802734" filter="invert(93%) hue-rotate(180deg)">
  <!-- svg-source:excalidraw -->

  <defs>
    <style>
      @font-face {
        font-family: "Virgil";
        src: url("https://excalidraw.com/Virgil.woff2");
      }
      @font-face {
        font-family: "Cascadia";
        src: url("https://excalidraw.com/Cascadia.woff2");
      }
    </style>
  </defs>
  <g transform="translate(74.89117431640625 10) rotate(0 85 23)"><text x="0" y="32" font-family="Virgil, Segoe UI Emoji" font-size="36px" fill="#fff" text-anchor="start" style="white-space: pre;" direction="ltr">PHP Code</text></g><g stroke-linecap="round" transform="translate(83.435546875 117.36543273925781) rotate(0 73.6341552734375 47.16619873046875)"><path d="M-1.33 1.27 C47.62 1.1, 98.97 2.56, 147.74 0.08 M-0.35 0.85 C52.63 1.01, 104.94 0.22, 147.84 0.24 M146.28 -0.51 C145.51 30.21, 146.08 61.18, 148.23 93.73 M148.17 -0.95 C147.3 32.08, 148.68 62.77, 147.71 94.3 M146.09 95.04 C93.26 93.56, 36.23 96.21, -1.06 94.53 M147.22 94.89 C103.32 93.6, 60.65 93.43, 0.1 93.47 M-1.16 93.23 C2.43 69.07, 0.2 42.91, 0.6 -0.33 M-0.72 94.3 C0.07 74.55, -1.28 54.31, 0.19 -0.36" stroke="#fff" stroke-width="1" fill="none"></path></g><g transform="translate(114.6014404296875 139.8024444580078) rotate(0 49 23)"><text x="0" y="32" font-family="Virgil, Segoe UI Emoji" font-size="36px" fill="#fff" text-anchor="start" style="white-space: pre;" direction="ltr">Lexer</text></g><g stroke-linecap="round" transform="translate(82.00201416015625 301.8513641357422) rotate(0 80.7423095703125 46.138031005859375)"><path d="M-1.79 0.9 C52.28 -1.95, 101.38 1.02, 160.78 -1.87 M-0.9 -0.37 C64.57 -1.07, 128.31 -1.5, 161.32 -0.41 M162.07 -1.25 C163.82 28.4, 163.87 57.12, 160.69 93.21 M160.83 -0.46 C161.29 28.03, 160.7 55.49, 160.81 93.13 M162.39 90.47 C111.1 92.23, 59.04 90.55, 0.93 90.95 M160.82 91.29 C112.48 93.58, 63.94 92.32, 0.6 91.78 M0.38 93.17 C-0.24 70.09, -0.84 51.04, -0.5 -0.98 M0.91 92.46 C-0.24 68.98, -0.16 45.27, 0.49 -0.96" stroke="#fff" stroke-width="1" fill="none"></path></g><g transform="translate(106.20916748046875 326.3422088623047) rotate(0 59.5 23)"><text x="0" y="32" font-family="Virgil, Segoe UI Emoji" font-size="36px" fill="#fff" text-anchor="start" style="white-space: pre;" direction="ltr">Parser</text></g><g stroke-linecap="round" transform="translate(78.87701416015625 477.2432403564453) rotate(0 85.28323364257812 42.730316162109375)"><path d="M1.12 0.85 C34.75 1.85, 69.32 -0.33, 172.51 1.68 M-0.89 -0.53 C51.91 -1.04, 103.39 0.41, 170.66 -0.32 M171.45 0.47 C172.76 24.23, 170.75 50.56, 169.17 84.12 M170.99 0.29 C170.54 30.28, 170.93 62.76, 170.5 86.26 M170.85 84.02 C108.84 84.67, 47.51 84.43, 0.3 84.64 M169.84 85.67 C131.29 86.34, 90.8 87.21, 0.21 86 M-0.63 86.45 C1 61.73, 0.08 37.57, 1.73 -1.88 M-0.05 85.17 C-1.16 64.56, -0.85 41.03, -0.76 -0.74" stroke="#fff" stroke-width="1" fill="none"></path></g><g transform="translate(99.055908203125 497.1961212158203) rotate(0 68.5 23)"><text x="0" y="32" font-family="Virgil, Segoe UI Emoji" font-size="36px" fill="#fff" text-anchor="start" style="white-space: pre;" direction="ltr">Compiler</text></g><g stroke-linecap="round" transform="translate(10 642.0418243408203) rotate(0 168.78009033203125 40.08905029296875)"><path d="M0.66 0.31 C134.29 0.58, 267.4 1.01, 338.74 -0.97 M-0.26 0.57 C108.18 0.06, 216.11 0.08, 337.95 -0.1 M338.88 1.49 C339.58 16.51, 339.08 34.08, 335.87 80.67 M337.14 0.49 C337.55 19.49, 338.08 39.69, 337.01 79.97 M338.23 79.18 C213.4 82.71, 92.67 82.79, 0.64 80.3 M337.03 80.25 C205.19 82.37, 73.6 81.46, -0.26 80.32 M-0.5 78.94 C1.45 58.2, 1.6 32.28, -1.36 0.02 M-0.37 79.86 C1.06 57.72, 0.02 35.37, 0.31 0.42" stroke="#fff" stroke-width="1" fill="none"></path></g><g transform="translate(35.1575927734375 657.9278717041016) rotate(0 141.5 23)"><text x="0" y="32" font-family="Virgil, Segoe UI Emoji" font-size="36px" fill="#fff" text-anchor="start" style="white-space: pre;" direction="ltr">VM -&gt; Execution</text></g><g transform="translate(187.69305419921875 238.5010223388672) rotate(0 62 23)"><text x="0" y="32" font-family="Virgil, Segoe UI Emoji" font-size="36px" fill="#fff" text-anchor="start" style="white-space: pre;" direction="ltr">Tokens</text></g><g transform="translate(187.63458251953125 414.3991241455078) rotate(0 38 23)"><text x="0" y="32" font-family="Virgil, Segoe UI Emoji" font-size="36px" fill="#fff" text-anchor="start" style="white-space: pre;" direction="ltr">AST</text></g><g transform="translate(191.482421875 584.4343414306641) rotate(0 71.5 23)"><text x="0" y="32" font-family="Virgil, Segoe UI Emoji" font-size="36px" fill="#fff" text-anchor="start" style="white-space: pre;" direction="ltr">Opcodes</text></g><g stroke-linecap="round"><g transform="translate(154.97027587890625 56.15382385253906) rotate(0 0.765503590926528 29.075353987850235)"><path d="M-0.72 0.02 C-0.15 9.64, 1.66 48.29, 2.25 58.11 M1.1 -1.01 C1.62 8.69, 1.06 48.95, 1.26 59.16" stroke="#fff" stroke-width="1" fill="none"></path></g><g transform="translate(154.97027587890625 56.15382385253906) rotate(0 0.765503590926528 29.075353987850235)"><path d="M-8.85 31.26 C-8.32 37.83, -4.87 43.14, 2.08 59.11 M-8.18 31.67 C-6.95 37.5, -4.15 45.54, 1.56 59.75" stroke="#fff" stroke-width="1" fill="none"></path></g><g transform="translate(154.97027587890625 56.15382385253906) rotate(0 0.765503590926528 29.075353987850235)"><path d="M11.36 31.23 C7.84 37.69, 7.23 43, 2.08 59.11 M12.03 31.64 C8.36 37.35, 6.27 45.38, 1.56 59.75" stroke="#fff" stroke-width="1" fill="none"></path></g></g><g stroke-linecap="round"><g transform="translate(156.65423583984375 214.9870147705078) rotate(0 0.6319044951350179 40.944075804296915)"><path d="M-0.64 1.17 C-0.45 14.31, 1.64 66.58, 1.9 79.75 M1.22 0.73 C1.27 13.98, 1.63 67.67, 1.44 81.15" stroke="#fff" stroke-width="1" fill="none"></path></g><g transform="translate(156.65423583984375 214.9870147705078) rotate(0 0.6319044951350179 40.944075804296915)"><path d="M-6.81 54.48 C-5.29 63.11, -0.84 74.44, 3.08 79.55 M-8.61 53.26 C-5.61 59.39, -2.95 66.91, 1.22 80.94" stroke="#fff" stroke-width="1" fill="none"></path></g><g transform="translate(156.65423583984375 214.9870147705078) rotate(0 0.6319044951350179 40.944075804296915)"><path d="M13.71 54.52 C7.8 63.02, 4.82 74.34, 3.08 79.55 M11.91 53.31 C9.76 59.3, 7.27 66.8, 1.22 80.94" stroke="#fff" stroke-width="1" fill="none"></path></g></g><g stroke-linecap="round"><g transform="translate(157.7052001953125 397.70314025878906) rotate(0 -0.9821402259234446 37.82879813665522)"><path d="M-0.2 0.54 C-0.13 12.76, -0.68 61.97, -0.71 74.3 M-1.77 -0.22 C-1.7 12.73, -1.51 63.18, -1.33 75.88" stroke="#fff" stroke-width="1" fill="none"></path></g><g transform="translate(157.7052001953125 397.70314025878906) rotate(0 -0.9821402259234446 37.82879813665522)"><path d="M-10.92 48.83 C-9.29 55.07, -6.78 57.73, -2.66 77.34 M-12.66 48.72 C-8.67 58.65, -4.42 69.63, -1.08 76.37" stroke="#fff" stroke-width="1" fill="none"></path></g><g transform="translate(157.7052001953125 397.70314025878906) rotate(0 -0.9821402259234446 37.82879813665522)"><path d="M9.6 48.66 C7.03 54.91, 5.35 57.59, -2.66 77.34 M7.86 48.55 C4.18 58.42, 0.75 69.46, -1.08 76.37" stroke="#fff" stroke-width="1" fill="none"></path></g></g><g stroke-linecap="round"><g transform="translate(160.63485059923232 568.8918418406881) rotate(0 1.1029195360904396 35.6435879859049)"><path d="M-0.41 1.02 C-0.41 12.63, 0.06 58.23, 0.19 69.57 M1.58 0.51 C1.94 12.28, 2.91 59.23, 2.54 70.78" stroke="#fff" stroke-width="1" fill="none"></path></g><g transform="translate(160.63485059923232 568.8918418406881) rotate(0 1.1029195360904396 35.6435879859049)"><path d="M-5.99 41.41 C-5.5 50.75, -3.04 60.81, 1.25 68.84 M-7.55 42.64 C-4.05 53.09, 0.39 64.23, 1.8 70.5" stroke="#fff" stroke-width="1" fill="none"></path></g><g transform="translate(160.63485059923232 568.8918418406881) rotate(0 1.1029195360904396 35.6435879859049)"><path d="M14.53 41.44 C8.48 50.7, 4.39 60.75, 1.25 68.84 M12.97 42.67 C8.65 53.12, 5.28 64.25, 1.8 70.5" stroke="#fff" stroke-width="1" fill="none"></path></g></g></svg>
